# Blender 5.0.1
# www.blender.org
mtllib cubo_emociones.mtl
o Cube
v 1.000000 1.000000 -1.000000
v 1.000000 -1.000000 -1.000000
v 1.000000 1.000000 1.000000
v 1.000000 -1.000000 1.000000
v -1.000000 1.000000 -1.000000
v -1.000000 -1.000000 -1.000000
v -1.000000 1.000000 1.000000
v -1.000000 -1.000000 1.000000
vn -0.0000 1.0000 -0.0000
vn -0.0000 -0.0000 1.0000
vn -1.0000 -0.0000 -0.0000
vn -0.0000 -1.0000 -0.0000
vn 1.0000 -0.0000 -0.0000
vn -0.0000 -0.0000 -1.0000
vt 0.990369 0.744688
vt 0.671724 0.507943
vt 0.992309 0.507750
vt 0.661575 0.993490
vt 0.338425 0.752588
vt 0.664243 0.753948
vt 0.662172 0.246733
vt 0.341211 0.006208
vt 0.663153 0.007191
vt 0.007418 0.505162
vt 0.329181 0.746145
vt 0.007285 0.747319
vt 0.661037 0.744851
vt 0.340024 0.506208
vt 0.662139 0.505461
vt 0.662205 0.494165
vt 0.340410 0.257142
vt 0.662303 0.253319
vt 0.671092 0.742250
vt 0.339679 0.993438
vt 0.341626 0.245750
vt 0.333236 0.502681
vt 0.337862 0.745602
vt 0.341619 0.495374
s 0
g off
g Cube_Material
usemtl Material
f 5/1/1 3/2/1 1/3/1
f 3/4/2 8/5/2 4/6/2
f 7/7/3 6/8/3 8/9/3
f 2/10/4 8/11/4 6/12/4
f 1/13/5 4/14/5 2/15/5
f 5/16/6 2/17/6 6/18/6
f 5/1/1 7/19/1 3/2/1
f 3/4/2 7/20/2 8/5/2
f 7/7/3 5/21/3 6/8/3
f 2/10/4 4/22/4 8/11/4
f 1/13/5 3/23/5 4/14/5
f 5/16/6 1/24/6 2/17/6
